<?xml version="1.0" encoding="iso-8859-1"?>
<!-- Generator: Adobe Illustrator 16.0.0, SVG Export Plug-In . SVG Version: 6.00 Build 0)  -->
<!DOCTYPE svg PUBLIC "-//W3C//DTD SVG 1.1//EN" "http://www.w3.org/Graphics/SVG/1.1/DTD/svg11.dtd">
<svg version="1.1" id="Capa_1" xmlns="http://www.w3.org/2000/svg" xmlns:xlink="http://www.w3.org/1999/xlink" x="0px" y="0px"
	 width="612px" height="612px" viewBox="0 0 612 612" style="enable-background:new 0 0 612 612;" xml:space="preserve">
<g>
	<g id="headphones">
		<g>
			<path d="M557.683,451.853c6.68-100.849,10.993-450.612-251.167-450.612C23.285,1.241,51.092,392.229,56.875,451.07
				C23.953,461.777,0,492.295,0,528.71c0,45.31,36.835,82.049,82.278,82.049s82.278-36.739,82.278-82.049
				c0-40.9-30.098-74.529-69.357-80.751C91.268,382.61,81.4,40.004,306.516,40.004c208.396,0,214.98,307.737,211.641,407.822
				c-39.908,5.649-70.713,39.526-70.713,80.885c0,45.31,36.836,82.049,82.278,82.049c45.443,0,82.278-36.739,82.278-82.049
				C612,493.23,589.288,463.304,557.683,451.853z M123.026,531.172c0,22.483-18.284,40.71-40.824,40.71
				c-22.54,0-40.824-18.227-40.824-40.71c0-22.482,18.284-40.709,40.824-40.709C104.742,490.463,123.026,508.69,123.026,531.172z
				 M529.646,571.863c-22.54,0-40.824-18.227-40.824-40.709c0-22.483,18.284-40.71,40.824-40.71s40.824,18.227,40.824,40.71
				C570.45,553.656,552.186,571.863,529.646,571.863z"/>
		</g>
	</g>
</g>
<g>
</g>
<g>
</g>
<g>
</g>
<g>
</g>
<g>
</g>
<g>
</g>
<g>
</g>
<g>
</g>
<g>
</g>
<g>
</g>
<g>
</g>
<g>
</g>
<g>
</g>
<g>
</g>
<g>
</g>
</svg>
