<?xml version="1.0" encoding="iso-8859-1"?>
<!-- Generator: Adobe Illustrator 16.0.0, SVG Export Plug-In . SVG Version: 6.00 Build 0)  -->
<!DOCTYPE svg PUBLIC "-//W3C//DTD SVG 1.1//EN" "http://www.w3.org/Graphics/SVG/1.1/DTD/svg11.dtd">
<svg version="1.1" id="Capa_1" xmlns="http://www.w3.org/2000/svg" xmlns:xlink="http://www.w3.org/1999/xlink" x="0px" y="0px"
	 width="792px" height="792px" viewBox="0 0 792 792" style="enable-background:new 0 0 792 792;" xml:space="preserve">
<g>
	<g id="smartphone">
		<g>
			<path d="M396,544.5c-41.011,0-74.25,33.239-74.25,74.25S354.989,693,396,693s74.25-33.239,74.25-74.25S437.011,544.5,396,544.5z
				 M396,648.92c-16.657,0-30.17-13.514-30.17-30.17s13.514-30.17,30.17-30.17c16.657,0,30.17,13.514,30.17,30.17
				S412.657,648.92,396,648.92z M544.5,99h-297v396h297V99z M495,445.5H296.703v-297H495V445.5z M148.5,0v792h495V0H148.5z
				 M594,742.5H197.703v-693H594V742.5z"/>
		</g>
	</g>
</g>
<g>
</g>
<g>
</g>
<g>
</g>
<g>
</g>
<g>
</g>
<g>
</g>
<g>
</g>
<g>
</g>
<g>
</g>
<g>
</g>
<g>
</g>
<g>
</g>
<g>
</g>
<g>
</g>
<g>
</g>
</svg>
