<?xml version="1.0" encoding="iso-8859-1"?>
<!-- Generator: Adobe Illustrator 16.0.0, SVG Export Plug-In . SVG Version: 6.00 Build 0)  -->
<!DOCTYPE svg PUBLIC "-//W3C//DTD SVG 1.1//EN" "http://www.w3.org/Graphics/SVG/1.1/DTD/svg11.dtd">
<svg version="1.1" id="Capa_1" xmlns="http://www.w3.org/2000/svg" xmlns:xlink="http://www.w3.org/1999/xlink" x="0px" y="0px"
	 width="613.735px" height="613.735px" viewBox="0 0 613.735 613.735" style="enable-background:new 0 0 613.735 613.735;"
	 xml:space="preserve">
<g>
	<g id="bubble">
		<g>
			<path d="M192.364,230.196h229.967v-38.328H192.364V230.196L192.364,230.196z M192.364,326.016h229.967v-38.328H192.364V326.016
				L192.364,326.016z M455.676,38.959C308.037-43.618,121.726,9.37,39.532,157.316C-23.843,271.36-6.596,408.344,72.111,503.053
				l-24.549,93.539l93.884-32.195c5.442,3.525,10.789,7.167,16.519,10.367c147.62,82.597,333.931,29.608,416.145-118.356
				C656.322,308.462,603.296,121.556,455.676,38.959z M541.952,437.301c-72.21,129.376-235.888,175.695-365.571,103.485
				C46.699,468.576,0.112,305.146,72.321,175.79C144.531,46.414,308.21,0.095,437.892,72.305
				C567.574,144.514,614.162,307.944,541.952,437.301z M192.364,421.836h229.967v-38.328H192.364V421.836L192.364,421.836z"/>
		</g>
	</g>
</g>
<g>
</g>
<g>
</g>
<g>
</g>
<g>
</g>
<g>
</g>
<g>
</g>
<g>
</g>
<g>
</g>
<g>
</g>
<g>
</g>
<g>
</g>
<g>
</g>
<g>
</g>
<g>
</g>
<g>
</g>
</svg>
