<?xml version="1.0" encoding="iso-8859-1"?>
<!-- Generator: Adobe Illustrator 16.0.0, SVG Export Plug-In . SVG Version: 6.00 Build 0)  -->
<!DOCTYPE svg PUBLIC "-//W3C//DTD SVG 1.1//EN" "http://www.w3.org/Graphics/SVG/1.1/DTD/svg11.dtd">
<svg version="1.1" id="Capa_1" xmlns="http://www.w3.org/2000/svg" xmlns:xlink="http://www.w3.org/1999/xlink" x="0px" y="0px"
	 width="612px" height="612px" viewBox="0 0 612 612" style="enable-background:new 0 0 612 612;" xml:space="preserve">
<g>
	<g id="rainy">
		<g>
			<path d="M191.304,458.967h38.261v-57.392h-38.261V458.967z M286.956,554.618h38.261v-57.391h-38.261V554.618z M382.607,478.097
				h38.261v-57.391h-38.261V478.097z M506.802,133.96c-28.141,0-53.642,11.096-72.523,29.078
				C416.583,102.185,357.394,57.382,286.86,57.382c-79.448,0-144.721,56.817-152.182,129.455
				c-13.812-9.47-30.532-15.075-48.553-15.075C38.548,171.762,0,210.367,0,257.983s38.548,86.202,86.125,86.202
				c36.692,0,67.798-23.071,80.214-55.421c27.987,33.631,71.509,55.363,120.541,55.363c51.537,0,97.029-23.971,124.73-60.605
				c16.797,35.736,53.049,60.567,95.192,60.567c58.1,0,105.198-47.042,105.198-105.045C612,181.041,564.901,133.96,506.802,133.96z
				 M86.087,305.981c-26.305,0-47.635-21.369-47.635-47.75c0-26.362,21.33-47.75,47.635-47.75c26.304,0,47.634,21.369,47.634,47.75
				S112.391,305.981,86.087,305.981z M286.841,305.981c-63.513,0-115.012-47.042-115.012-105.084
				c0-58.042,51.499-105.083,115.012-105.083s115.012,47.042,115.012,105.083C401.853,258.92,350.354,305.981,286.841,305.981z
				 M505.138,306.173c-35.984,0-65.158-30.093-65.158-67.206s29.174-67.205,65.158-67.205s65.158,30.092,65.158,67.205
				S541.122,306.173,505.138,306.173z"/>
		</g>
	</g>
</g>
<g>
</g>
<g>
</g>
<g>
</g>
<g>
</g>
<g>
</g>
<g>
</g>
<g>
</g>
<g>
</g>
<g>
</g>
<g>
</g>
<g>
</g>
<g>
</g>
<g>
</g>
<g>
</g>
<g>
</g>
</svg>
