<?xml version="1.0" encoding="iso-8859-1"?>
<!-- Generator: Adobe Illustrator 16.0.0, SVG Export Plug-In . SVG Version: 6.00 Build 0)  -->
<!DOCTYPE svg PUBLIC "-//W3C//DTD SVG 1.1//EN" "http://www.w3.org/Graphics/SVG/1.1/DTD/svg11.dtd">
<svg version="1.1" id="Capa_1" xmlns="http://www.w3.org/2000/svg" xmlns:xlink="http://www.w3.org/1999/xlink" x="0px" y="0px"
	 width="612px" height="612px" viewBox="0 0 612 612" style="enable-background:new 0 0 612 612;" xml:space="preserve">
<g>
	<g id="padlock">
		<g>
			<path d="M314.97,515.782c47.525,0,86.062-38.27,86.062-85.47s-38.537-85.47-86.062-85.47c-47.526,0-86.062,38.27-86.062,85.47
				S267.444,515.782,314.97,515.782z M316.461,383.093c26.909,0,48.712,21.401,48.712,47.812c0,26.412-21.803,47.812-48.712,47.812
				c-26.908,0-48.711-21.4-48.711-47.812C267.75,404.513,289.553,383.093,316.461,383.093z M516.471,248.625
				C518.191,236.271,548.122,0,306,0C70.609,0,92.354,224.7,95.338,248.625H0V612h612V248.625H516.471z M306,38.843
				c203.279,0,173.655,197.542,171.628,209.782h-344.04C130.547,228.773,106.603,38.843,306,38.843z M573.75,574.936H38.25V286.875
				h535.5V574.936z"/>
		</g>
	</g>
</g>
<g>
</g>
<g>
</g>
<g>
</g>
<g>
</g>
<g>
</g>
<g>
</g>
<g>
</g>
<g>
</g>
<g>
</g>
<g>
</g>
<g>
</g>
<g>
</g>
<g>
</g>
<g>
</g>
<g>
</g>
</svg>
