<?xml version="1.0" encoding="iso-8859-1"?>
<!-- Generator: Adobe Illustrator 16.0.0, SVG Export Plug-In . SVG Version: 6.00 Build 0)  -->
<!DOCTYPE svg PUBLIC "-//W3C//DTD SVG 1.1//EN" "http://www.w3.org/Graphics/SVG/1.1/DTD/svg11.dtd">
<svg version="1.1" id="Capa_1" xmlns="http://www.w3.org/2000/svg" xmlns:xlink="http://www.w3.org/1999/xlink" x="0px" y="0px"
	 width="671.882px" height="671.883px" viewBox="0 0 671.882 671.883" style="enable-background:new 0 0 671.882 671.883;"
	 xml:space="preserve">
<g>
	<g id="moonlight">
		<g>
			<path d="M613.495,601.971c0,0-180.205-90.312-265.166-238.182C263.597,216.296,272.327,0,272.327,0l-42.659,25.432l-0.021-0.042
				c-0.315,0.189-0.609,0.42-0.923,0.609l-4.05,2.434c0,0,0,0.167,0,0.23C65.305,125.166,10.895,339.889,103.663,501.67
				c92.159,160.732,295.025,216.799,457.059,128.48c0.063,0.043,0.378,0.23,0.378,0.23L613.495,601.971z M149.343,476.553
				c-72.162-125.627-40.687-306.021,78.184-387.038c5.98,72.267,24.425,195.229,81.311,294.249
				c53.886,93.797,140.483,167.531,196.887,209.1C378.208,651.973,220.351,600.123,149.343,476.553z"/>
		</g>
	</g>
</g>
<g>
</g>
<g>
</g>
<g>
</g>
<g>
</g>
<g>
</g>
<g>
</g>
<g>
</g>
<g>
</g>
<g>
</g>
<g>
</g>
<g>
</g>
<g>
</g>
<g>
</g>
<g>
</g>
<g>
</g>
</svg>
