<?xml version="1.0" encoding="iso-8859-1"?>
<!-- Generator: Adobe Illustrator 16.0.0, SVG Export Plug-In . SVG Version: 6.00 Build 0)  -->
<!DOCTYPE svg PUBLIC "-//W3C//DTD SVG 1.1//EN" "http://www.w3.org/Graphics/SVG/1.1/DTD/svg11.dtd">
<svg version="1.1" id="Capa_1" xmlns="http://www.w3.org/2000/svg" xmlns:xlink="http://www.w3.org/1999/xlink" x="0px" y="0px"
	 width="612.02px" height="612.02px" viewBox="0 0 612.02 612.02" style="enable-background:new 0 0 612.02 612.02;"
	 xml:space="preserve">
<g>
	<g id="musical_note">
		<g>
			<path d="M593.049,472.664V0.965L114.032,115.59v329.832c-8.921-3.133-18.378-5.177-28.389-5.177
				C38.342,440.245,0,478.491,0,525.659s38.342,85.396,85.663,85.396c47.321,0,85.663-38.246,85.663-85.396
				c0-20.136-7.279-38.38-18.951-52.976V153.798l402.371-95.521v387.145c-8.922-3.133-18.378-5.177-28.389-5.177
				c-47.302,0-85.663,38.246-85.663,85.414s38.342,85.396,85.663,85.396c47.302,0,85.663-38.246,85.663-85.396
				C612,505.523,604.722,487.279,593.049,472.664z M87.955,572.12c-25.714,0-46.538-20.785-46.538-46.403
				c0-25.619,20.843-46.404,46.538-46.404c25.695,0,46.538,20.785,46.538,46.404C134.493,551.335,113.65,572.12,87.955,572.12z
				 M528.63,572.12c-25.714,0-46.538-20.785-46.538-46.403c0-25.619,20.843-46.404,46.538-46.404
				c25.694,0,46.537,20.785,46.537,46.404C575.167,551.335,554.344,572.12,528.63,572.12z"/>
		</g>
	</g>
</g>
<g>
</g>
<g>
</g>
<g>
</g>
<g>
</g>
<g>
</g>
<g>
</g>
<g>
</g>
<g>
</g>
<g>
</g>
<g>
</g>
<g>
</g>
<g>
</g>
<g>
</g>
<g>
</g>
<g>
</g>
</svg>
