<?xml version="1.0" encoding="iso-8859-1"?>
<!-- Generator: Adobe Illustrator 16.0.0, SVG Export Plug-In . SVG Version: 6.00 Build 0)  -->
<!DOCTYPE svg PUBLIC "-//W3C//DTD SVG 1.1//EN" "http://www.w3.org/Graphics/SVG/1.1/DTD/svg11.dtd">
<svg version="1.1" id="Capa_1" xmlns="http://www.w3.org/2000/svg" xmlns:xlink="http://www.w3.org/1999/xlink" x="0px" y="0px"
	 width="792px" height="792px" viewBox="0 0 792 792" style="enable-background:new 0 0 792 792;" xml:space="preserve">
<g>
	<g id="location_pin">
		<g>
			<path d="M396,198.767c-54.673,0-99,44.154-99,98.604c0,54.475,44.327,98.604,99,98.604c54.673,0,99-44.154,99-98.604
				C495,242.921,450.674,198.767,396,198.767z M396,346.5c-27.349,0-49.5-22.151-49.5-49.5s22.151-49.5,49.5-49.5
				c27.349,0,49.5,22.151,49.5,49.5S423.324,346.5,396,346.5z M396,0C145.333,0,99.768,198.767,99.768,321.75
				C99.768,619.518,396,792,396,792s296.232-170.924,296.232-470.25C692.232,173.25,645.926,0,396,0z M396,736.511
				c0,0-254.727-149.985-254.727-408.944c0-106.945,39.179-279.799,254.727-279.799c214.904,0,254.726,150.653,254.726,279.799
				C650.703,587.862,396,736.511,396,736.511z"/>
		</g>
	</g>
</g>
<g>
</g>
<g>
</g>
<g>
</g>
<g>
</g>
<g>
</g>
<g>
</g>
<g>
</g>
<g>
</g>
<g>
</g>
<g>
</g>
<g>
</g>
<g>
</g>
<g>
</g>
<g>
</g>
<g>
</g>
</svg>
