<?xml version="1.0" encoding="iso-8859-1"?>
<!-- Generator: Adobe Illustrator 16.0.0, SVG Export Plug-In . SVG Version: 6.00 Build 0)  -->
<!DOCTYPE svg PUBLIC "-//W3C//DTD SVG 1.1//EN" "http://www.w3.org/Graphics/SVG/1.1/DTD/svg11.dtd">
<svg version="1.1" id="Capa_1" xmlns="http://www.w3.org/2000/svg" xmlns:xlink="http://www.w3.org/1999/xlink" x="0px" y="0px"
	 width="699.578px" height="699.578px" viewBox="0 0 699.578 699.578" style="enable-background:new 0 0 699.578 699.578;"
	 xml:space="preserve">
<g>
	<g id="power">
		<g>
			<path d="M415.44,94.684v45.101c113.025,29.186,196.646,131.543,196.646,253.729c0,144.878-117.42,262.342-262.276,262.342
				c-144.856,0-262.298-117.464-262.298-262.342c0-122.208,83.665-224.608,196.756-253.75V94.662
				C146.78,124.678,43.789,246.995,43.789,393.513c0,169.036,137.008,306.065,306,306.065c168.992,0,306-137.029,306-306.065
				C655.789,247.039,552.863,124.765,415.44,94.684z M371.717,0h-43.724v218.618h43.724V0z"/>
		</g>
	</g>
</g>
<g>
</g>
<g>
</g>
<g>
</g>
<g>
</g>
<g>
</g>
<g>
</g>
<g>
</g>
<g>
</g>
<g>
</g>
<g>
</g>
<g>
</g>
<g>
</g>
<g>
</g>
<g>
</g>
<g>
</g>
</svg>
