<?xml version="1.0" encoding="iso-8859-1"?>
<!-- Generator: Adobe Illustrator 16.0.0, SVG Export Plug-In . SVG Version: 6.00 Build 0)  -->
<!DOCTYPE svg PUBLIC "-//W3C//DTD SVG 1.1//EN" "http://www.w3.org/Graphics/SVG/1.1/DTD/svg11.dtd">
<svg version="1.1" id="Capa_1" xmlns="http://www.w3.org/2000/svg" xmlns:xlink="http://www.w3.org/1999/xlink" x="0px" y="0px"
	 width="612px" height="612px" viewBox="0 0 612 612" style="enable-background:new 0 0 612 612;" xml:space="preserve">
<g>
	<g id="volume_increase">
		<g>
			<path d="M0,229.5v153.038l115.897-0.076L306,612V0L115.936,229.5H0z M267.75,115.343v383.093L133.875,344.25H37.103l-0.038-76.5
				h96.811L267.75,115.343z M611.962,57.337v-38.25H459l0.038,38.25H611.962z M611.962,133.837v-38.25H459l0.038,38.25H611.962z
				 M611.962,210.337v-38.25H459l0.038,38.25H611.962z M459,248.587l0.038,38.25H612v-38.25H459z M459.038,363.337H612v-38.25H459
				L459.038,363.337z M459.038,439.837H612v-38.25H459L459.038,439.837z M459.038,516.337H612v-38.25H459L459.038,516.337z
				 M459.038,592.837H612v-38.212H459L459.038,592.837z"/>
		</g>
	</g>
</g>
<g>
</g>
<g>
</g>
<g>
</g>
<g>
</g>
<g>
</g>
<g>
</g>
<g>
</g>
<g>
</g>
<g>
</g>
<g>
</g>
<g>
</g>
<g>
</g>
<g>
</g>
<g>
</g>
<g>
</g>
</svg>
