<?xml version="1.0" encoding="iso-8859-1"?>
<!-- Generator: Adobe Illustrator 16.0.0, SVG Export Plug-In . SVG Version: 6.00 Build 0)  -->
<!DOCTYPE svg PUBLIC "-//W3C//DTD SVG 1.1//EN" "http://www.w3.org/Graphics/SVG/1.1/DTD/svg11.dtd">
<svg version="1.1" id="Capa_1" xmlns="http://www.w3.org/2000/svg" xmlns:xlink="http://www.w3.org/1999/xlink" x="0px" y="0px"
	 width="612.977px" height="612.977px" viewBox="0 0 612.977 612.977" style="enable-background:new 0 0 612.977 612.977;"
	 xml:space="preserve">
<g>
	<g id="label">
		<g>
			<path d="M361.909,161.401c-22.544,23.826-21.396,61.334,2.564,83.743c23.959,22.41,61.64,21.28,84.184-2.564
				c22.543-23.826,21.395-61.334-2.564-83.744C422.133,136.427,384.452,137.576,361.909,161.401z M426.821,222.142
				c-11.176,11.827-29.873,12.401-41.757,1.263c-11.884-11.119-12.458-29.72-1.282-41.546s29.873-12.401,41.757-1.263
				C437.424,191.714,437.997,210.315,426.821,222.142z M565.431,33.107L331.5,0L0.488,350.033l280.969,262.943l331.031-350.035
				L565.431,33.107z M279.888,560.215L54.359,349.25L345.184,41.718l184.882,28.304l40.608,182.701L279.888,560.215z"/>
		</g>
	</g>
</g>
<g>
</g>
<g>
</g>
<g>
</g>
<g>
</g>
<g>
</g>
<g>
</g>
<g>
</g>
<g>
</g>
<g>
</g>
<g>
</g>
<g>
</g>
<g>
</g>
<g>
</g>
<g>
</g>
<g>
</g>
</svg>
