<?xml version="1.0" encoding="iso-8859-1"?>
<!-- Generator: Adobe Illustrator 16.0.0, SVG Export Plug-In . SVG Version: 6.00 Build 0)  -->
<!DOCTYPE svg PUBLIC "-//W3C//DTD SVG 1.1//EN" "http://www.w3.org/Graphics/SVG/1.1/DTD/svg11.dtd">
<svg version="1.1" id="Capa_1" xmlns="http://www.w3.org/2000/svg" xmlns:xlink="http://www.w3.org/1999/xlink" x="0px" y="0px"
	 width="612px" height="612px" viewBox="0 0 612 612" style="enable-background:new 0 0 612 612;" xml:space="preserve">
<g>
	<g id="thunder">
		<g>
			<path d="M506.802,126.241c-28.141,0-53.642,11.096-72.523,29.078C416.583,94.465,357.394,49.662,286.86,49.662
				c-79.448,0-144.721,56.817-152.182,129.455c-13.812-9.469-30.532-15.075-48.553-15.075C38.548,164.042,0,202.647,0,250.263
				c0,47.615,38.548,86.202,86.125,86.202c36.692,0,67.798-23.072,80.214-55.421c27.987,33.632,71.509,55.364,120.541,55.364
				c51.537,0,97.029-23.971,124.73-60.606c16.797,35.735,53.049,60.567,95.192,60.567c58.1,0,105.198-47.042,105.198-105.045
				S564.901,126.241,506.802,126.241z M86.087,298.261c-26.305,0-47.635-21.369-47.635-47.75c0-26.361,21.33-47.75,47.635-47.75
				c26.304,0,47.634,21.369,47.634,47.75S112.391,298.261,86.087,298.261z M286.841,298.261
				c-63.513,0-115.012-47.042-115.012-105.083S223.328,88.095,286.841,88.095s115.012,47.042,115.012,105.083
				C401.853,251.201,350.354,298.261,286.841,298.261z M505.138,298.453c-35.984,0-65.158-30.092-65.158-67.205
				s29.174-67.205,65.158-67.205s65.158,30.092,65.158,67.205S541.122,298.453,505.138,298.453z M343.754,412.986l-19.131-38.262
				l-76.521,76.521l57.391,34.436l-61.217,76.656l118.608-91.961l-57.391-22.957L343.754,412.986z"/>
		</g>
	</g>
</g>
<g>
</g>
<g>
</g>
<g>
</g>
<g>
</g>
<g>
</g>
<g>
</g>
<g>
</g>
<g>
</g>
<g>
</g>
<g>
</g>
<g>
</g>
<g>
</g>
<g>
</g>
<g>
</g>
<g>
</g>
</svg>
