<?xml version="1.0" encoding="iso-8859-1"?>
<!-- Generator: Adobe Illustrator 16.0.0, SVG Export Plug-In . SVG Version: 6.00 Build 0)  -->
<!DOCTYPE svg PUBLIC "-//W3C//DTD SVG 1.1//EN" "http://www.w3.org/Graphics/SVG/1.1/DTD/svg11.dtd">
<svg version="1.1" id="Capa_1" xmlns="http://www.w3.org/2000/svg" xmlns:xlink="http://www.w3.org/1999/xlink" x="0px" y="0px"
	 width="612.001px" height="612.001px" viewBox="0 0 612.001 612.001" style="enable-background:new 0 0 612.001 612.001;"
	 xml:space="preserve">
<g>
	<g id="cloudy">
		<g>
			<path d="M506.802,239.178c-28.141,0-53.642,11.096-72.522,29.078c-17.696-60.854-76.904-105.657-147.419-105.657
				c-79.448,0-144.721,56.817-152.182,129.455c-13.812-9.47-30.532-15.075-48.553-15.075C38.548,276.979,0,315.583,0,363.201
				c0,47.615,38.548,86.201,86.125,86.201c36.692,0,67.798-23.07,80.214-55.42c27.988,33.631,71.509,55.361,120.541,55.361
				c51.537,0,97.029-23.969,124.73-60.604c16.796,35.734,53.049,60.566,95.192,60.566c58.1,0,105.198-47.043,105.198-105.045
				C612,286.219,564.901,239.178,506.802,239.178z M86.087,411.199c-26.304,0-47.635-21.369-47.635-47.75
				c0-26.379,21.33-47.73,47.635-47.73c26.305,0,47.635,21.369,47.635,47.75C133.721,389.847,112.391,411.199,86.087,411.199z
				 M286.841,411.199c-63.513,0-115.012-47.043-115.012-105.084s51.499-105.083,115.012-105.083s115.012,47.042,115.012,105.083
				C401.853,364.136,350.354,411.199,286.841,411.199z M505.138,411.388c-35.983,0-65.157-30.092-65.157-67.205
				c0-37.111,29.174-67.204,65.157-67.204c35.984,0,65.158,30.093,65.158,67.204C570.296,381.296,541.122,411.388,505.138,411.388z"
				/>
		</g>
	</g>
</g>
<g>
</g>
<g>
</g>
<g>
</g>
<g>
</g>
<g>
</g>
<g>
</g>
<g>
</g>
<g>
</g>
<g>
</g>
<g>
</g>
<g>
</g>
<g>
</g>
<g>
</g>
<g>
</g>
<g>
</g>
</svg>
