<?xml version="1.0" encoding="iso-8859-1"?>
<!-- Generator: Adobe Illustrator 16.0.0, SVG Export Plug-In . SVG Version: 6.00 Build 0)  -->
<!DOCTYPE svg PUBLIC "-//W3C//DTD SVG 1.1//EN" "http://www.w3.org/Graphics/SVG/1.1/DTD/svg11.dtd">
<svg version="1.1" id="Capa_1" xmlns="http://www.w3.org/2000/svg" xmlns:xlink="http://www.w3.org/1999/xlink" x="0px" y="0px"
	 width="612px" height="612px" viewBox="0 0 612 612" style="enable-background:new 0 0 612 612;" xml:space="preserve">
<g>
	<g id="switch">
		<g>
			<path d="M516.375,344.25H95.625C42.821,344.25,0,395.62,0,459s42.821,114.75,95.625,114.75h420.75
				C569.179,573.75,612,522.38,612,459S569.179,344.25,516.375,344.25z M486.846,535.634H121.329
				c-45.881,0-83.079-34.311-83.079-76.634s37.198-76.634,83.079-76.634h365.517c45.881,0,83.079,34.311,83.079,76.634
				S532.727,535.634,486.846,535.634z M95.625,267.75h420.75C569.179,267.75,612,216.38,612,153S569.179,38.25,516.375,38.25H95.625
				C42.821,38.25,0,89.62,0,153S42.821,267.75,95.625,267.75z M121.329,76.366h365.517c45.881,0,83.079,34.31,83.079,76.634
				s-37.198,76.634-83.079,76.634H121.329c-45.881,0-83.079-34.31-83.079-76.634S75.448,76.366,121.329,76.366z M478.125,497.25
				h38.25v-76.5h-38.25V497.25z M116.663,191.25c20.062,0,36.337-16.275,36.337-36.337s-16.275-36.337-36.337-36.337
				s-36.337,16.275-36.337,36.337S96.601,191.25,116.663,191.25z"/>
		</g>
	</g>
</g>
<g>
</g>
<g>
</g>
<g>
</g>
<g>
</g>
<g>
</g>
<g>
</g>
<g>
</g>
<g>
</g>
<g>
</g>
<g>
</g>
<g>
</g>
<g>
</g>
<g>
</g>
<g>
</g>
<g>
</g>
</svg>
