<?xml version="1.0" encoding="iso-8859-1"?>
<!-- Generator: Adobe Illustrator 16.0.0, SVG Export Plug-In . SVG Version: 6.00 Build 0)  -->
<!DOCTYPE svg PUBLIC "-//W3C//DTD SVG 1.1//EN" "http://www.w3.org/Graphics/SVG/1.1/DTD/svg11.dtd">
<svg version="1.1" id="Capa_1" xmlns="http://www.w3.org/2000/svg" xmlns:xlink="http://www.w3.org/1999/xlink" x="0px" y="0px"
	 width="612.002px" height="612.002px" viewBox="0 0 612.002 612.002" style="enable-background:new 0 0 612.002 612.002;"
	 xml:space="preserve">
<g>
	<g id="user">
		<g>
			<path d="M496.657,458.408c-115.343,0-133.282-26.526-133.282-32.914v-38.595C419.431,357.103,459,285.078,459,200.813
				C459,89.908,390.494,0.001,306,0.001S153,89.908,153,200.813c0,84.246,39.57,156.271,95.625,186.086v38.595
				c0,7.975-19.125,32.914-133.875,32.914S0,612.001,0,612.001h612C612,612.001,613.778,458.408,496.657,458.408z M191.25,201.406
				c0-89.772,51.236-162.562,114.444-162.562c63.208,0,114.444,72.79,114.444,162.562c0,89.773-51.235,162.562-114.444,162.562
				C242.486,363.969,191.25,291.198,191.25,201.406z M57.375,574.344c0,0,0-76.5,76.5-76.5c100.521,0,153-28.879,153-53.875
				c0-4.093,0-42.343,0-42.343h38.25c0,0,0,27.903,0,42.343c0,28.19,51.963,53.875,153,53.875c76.5,0,76.5,76.5,76.5,76.5H57.375z"
				/>
		</g>
	</g>
</g>
<g>
</g>
<g>
</g>
<g>
</g>
<g>
</g>
<g>
</g>
<g>
</g>
<g>
</g>
<g>
</g>
<g>
</g>
<g>
</g>
<g>
</g>
<g>
</g>
<g>
</g>
<g>
</g>
<g>
</g>
</svg>
